<svg width="35" height="20" viewBox="0 0 35 20" fill="none" xmlns="http://www.w3.org/2000/svg">
<path d="M3 4H2V5H3V4Z" fill="#E5D6B8"/>
<path d="M2 5H1V6H2V5Z" fill="#E0D2B7"/>
<path d="M3 5H2V18H3V5Z" fill="#312A1F"/>
<path d="M4 5H3V6H4V5Z" fill="#DFD0B4"/>
<path d="M1 6H0V8H1V6Z" fill="#E0D2B7"/>
<path d="M2 6H1V16H2V6Z" fill="#312A1F"/>
<path d="M4 6H3V18H4V6Z" fill="#312A1F"/>
<path d="M1 8H0V15H1V8Z" fill="#A88C66"/>
<path d="M1 15H0V17H1V15Z" fill="#98623C"/>
<path d="M2 16H1V18H2V16Z" fill="#98623C"/>
<path d="M3 18H2V19H3V18Z" fill="#9F6840"/>
<path d="M4 18H3V19H4V18Z" fill="#98623C"/>
<path d="M33 4H32V5H33V4Z" fill="#F6E7CB"/>
<path d="M32 5H31V6H32V5Z" fill="#F6E7CB"/>
<path d="M33 5H32V18H33V5Z" fill="#312A1F"/>
<path d="M34 5H33V6H34V5Z" fill="#DCD0B6"/>
<path d="M34 6H33V16H34V6Z" fill="#312A1F"/>
<path d="M32 6H31V18H32V6Z" fill="#312A1F"/>
<path d="M35 6H34V7H35V6Z" fill="#C1B19B"/>
<path d="M35 7H34V9H35V7Z" fill="#BCAD92"/>
<path d="M35 9H34V10H35V9Z" fill="#A88C66"/>
<path d="M35 10H34V11H35V10Z" fill="#A98D67"/>
<path d="M35 11H34V14H35V11Z" fill="#A88C66"/>
<path d="M35 14H34V15H35V14Z" fill="#A98B66"/>
<path d="M35 15H34V17H35V15Z" fill="#98623C"/>
<path d="M34 16H33V17H34V16Z" fill="#98623C"/>
<path d="M34 17H33V18H34V17Z" fill="#93653C"/>
<path d="M32 18H31V19H32V18Z" fill="#9E6C46"/>
<path d="M33 18H32V19H33V18Z" fill="#9E683B"/>
<path d="M5 5H4V6H5V5Z" fill="#DFD0B4"/>
<path d="M6 5H5V6H6V5Z" fill="#CAAC84"/>
<path d="M31 5H29V6H31V5Z" fill="#CDAA7D"/>
<path d="M7 6H6V7H7V6Z" fill="#CFAA81"/>
<path d="M8 6H7V7H8V6Z" fill="#D0AB82"/>
<path d="M10 6H8V7H10V6Z" fill="#CEA97A"/>
<path d="M11 6H10V7H11V6Z" fill="#CCAC80"/>
<path d="M23 6H11V7H23V6Z" fill="#CEA87C"/>
<path d="M14 7H12V19H14V7Z" fill="#312A1F"/>
<path d="M21 7H14V19H21V7Z" fill="#312A1F"/>
<path d="M23 7H21V19H23V7Z" fill="#312A1F"/>
<path d="M24 6H23V7H24V6Z" fill="#CDAA80"/>
<path d="M25 6H24V7H25V6Z" fill="#CBA97F"/>
<path d="M27 6H25V7H27V6Z" fill="#D2AD7E"/>
<path d="M28 6H27V7H28V6Z" fill="#CDAA80"/>
<path d="M29 6H28V7H29V6Z" fill="#CEAB7F"/>
<path d="M31 6H29V18H31V6Z" fill="#312A1F"/>
<path d="M12 7H4V19H12V7Z" fill="#312A1F"/>
<path d="M29 7H23V19H29V7Z" fill="#312A1F"/>
<path d="M6 18H4V19H6V18Z" fill="#312A1F"/>
<path d="M31 18H29V19H31V18Z" fill="#312A1F"/>
<path d="M31 19H4V20H31V19Z" fill="#98623C"/>
<rect x="4" y="6" width="2" height="1" fill="#312A1F"/>
<path d="M14 0H13V1H14V0Z" fill="#EFE0BB"/>
<path d="M19 0H16V1H19V0Z" fill="#CCAC80"/>
<path d="M22 0H21V1H22V0Z" fill="#EBDEC1"/>
<path d="M4 1H3V2H4V1Z" fill="#EFD9B7"/>
<path d="M19 1H14V2H19V1Z" fill="#CDAB79"/>
<path d="M21 1H19V2H21V1Z" fill="#C8A675"/>
<path d="M32 1H31V2H32V1Z" fill="#EFD9B7"/>
<path d="M8 2H4V4H8V2Z" fill="#CEAB7F"/>
<path d="M12 2H8V3H12V2Z" fill="#EFD9B7"/>
<path d="M19 2H16V4H19V2Z" fill="#C8A675"/>
<path d="M25 2H23V3H25V2Z" fill="#F6DDB3"/>
<path d="M27 2H25V3H27V2Z" fill="#EFD9B7"/>
<path d="M31 2H27V4H31V2Z" fill="#CEAB7F"/>
<path d="M10 3H8V4H10V3Z" fill="#CDA97C"/>
<path d="M12 3H10V4H12V3Z" fill="#CEAB7F"/>
<path d="M13 3H12V4H13V3Z" fill="#EFD9B7"/>
<path d="M16 3H15V4H16V3Z" fill="#C8A675"/>
<path d="M20 3H19V4H20V3Z" fill="#C8A675"/>
<path d="M23 3H22V4H23V3Z" fill="#F6DDB3"/>
<path d="M25 3H23V4H25V3Z" fill="#CEAB7F"/>
<path d="M27 3H25V4H27V3Z" fill="#CDA87F"/>
<path d="M7 4H6V5H7V4Z" fill="#CEAD81"/>
<path d="M8 4H7V5H8V4Z" fill="#CCAB7F"/>
<path d="M10 4H8V5H10V4Z" fill="#CDA879"/>
<path d="M13 4H10V5H13V4Z" fill="#CBAB80"/>
<path d="M16 4H13V5H16V4Z" fill="#EFD9B7"/>
<path d="M17 4H16V5H17V4Z" fill="#CDAA7D"/>
<path d="M18 4H17V5H18V4Z" fill="#312A1F"/>
<path d="M19 4H18V5H19V4Z" fill="#CDAA7D"/>
<path d="M22 4H19V5H22V4Z" fill="#EFD9B7"/>
<path d="M23 4H22V6H23V4Z" fill="#C4A177"/>
<path d="M24 4H23V5H24V4Z" fill="#CAAB82"/>
<path d="M25 4H24V5H25V4Z" fill="#D0AE87"/>
<path d="M27 4H25V5H27V4Z" fill="#CEAA7D"/>
<path d="M28 4H27V5H28V4Z" fill="#CCAC80"/>
<path d="M29 4H28V5H29V4Z" fill="#CAAA7F"/>
<path d="M10 5H8V6H10V5Z" fill="#CDAA7D"/>
<path d="M14 5H12V6H14V5Z" fill="#C4A174"/>
<path d="M15 5H14V6H15V5Z" fill="#312A1F"/>
<path d="M16 5H15V6H16V5Z" fill="#CDAA7D"/>
<path d="M19 5H16V6H19V5Z" fill="#C8A675"/>
<path d="M20 5H19V6H20V5Z" fill="#CDAA7D"/>
<path d="M21 5H20V6H21V5Z" fill="#312A1F"/>
<path d="M22 5H21V6H22V5Z" fill="#C4A177"/>
<path d="M27 5H25V6H27V5Z" fill="#C9A578"/>
</svg>
